<svg width="246" height="246" viewBox="0 0 246 246" fill="none" xmlns="http://www.w3.org/2000/svg">
<path d="M107.845 31.25C114.58 19.5834 131.419 19.5834 138.155 31.25L210.035 155.75C216.771 167.417 208.351 182 194.88 182H51.1201C37.859 182 29.4932 167.869 35.6602 156.299L35.9648 155.75L107.845 31.25Z" stroke="#E8928E" stroke-width="5"/>
<mask id="path-2-outside-1_1230_1070" maskUnits="userSpaceOnUse" x="111" y="78" width="23" height="73" fill="black">
<rect fill="white" x="111" y="78" width="23" height="73"/>
<path d="M116.3 124.7L113.2 79H131.8L128.7 124.7H116.3ZM122.5 149.8C119.7 149.8 117.4 148.9 115.6 147.1C113.8 145.3 112.9 143.167 112.9 140.7C112.9 138.167 113.8 136.067 115.6 134.4C117.4 132.667 119.7 131.8 122.5 131.8C125.367 131.8 127.667 132.667 129.4 134.4C131.2 136.067 132.1 138.167 132.1 140.7C132.1 143.167 131.2 145.3 129.4 147.1C127.667 148.9 125.367 149.8 122.5 149.8Z"/>
</mask>
<path d="M116.3 124.7L113.2 79H131.8L128.7 124.7H116.3ZM122.5 149.8C119.7 149.8 117.4 148.9 115.6 147.1C113.8 145.3 112.9 143.167 112.9 140.7C112.9 138.167 113.8 136.067 115.6 134.4C117.4 132.667 119.7 131.8 122.5 131.8C125.367 131.8 127.667 132.667 129.4 134.4C131.2 136.067 132.1 138.167 132.1 140.7C132.1 143.167 131.2 145.3 129.4 147.1C127.667 148.9 125.367 149.8 122.5 149.8Z" fill="#E8928E"/>
<path d="M116.3 124.7L115.302 124.768L115.366 125.7H116.3V124.7ZM113.2 79V78H112.13L112.202 79.0677L113.2 79ZM131.8 79L132.798 79.0677L132.87 78H131.8V79ZM128.7 124.7V125.7H129.634L129.698 124.768L128.7 124.7ZM115.6 147.1L114.893 147.807L115.6 147.1ZM115.6 134.4L116.279 135.134L116.287 135.127L116.294 135.12L115.6 134.4ZM129.4 134.4L128.693 135.107L128.706 135.121L128.721 135.134L129.4 134.4ZM129.4 147.1L128.693 146.393L128.686 146.4L128.68 146.406L129.4 147.1ZM116.3 124.7L117.298 124.632L114.198 78.9323L113.2 79L112.202 79.0677L115.302 124.768L116.3 124.7ZM113.2 79V80H131.8V79V78H113.2V79ZM131.8 79L130.802 78.9323L127.702 124.632L128.7 124.7L129.698 124.768L132.798 79.0677L131.8 79ZM128.7 124.7V123.7H116.3V124.7V125.7H128.7V124.7ZM122.5 149.8V148.8C119.936 148.8 117.9 147.986 116.307 146.393L115.6 147.1L114.893 147.807C116.9 149.814 119.464 150.8 122.5 150.8V149.8ZM115.6 147.1L116.307 146.393C114.688 144.774 113.9 142.892 113.9 140.7H112.9H111.9C111.9 143.441 112.912 145.826 114.893 147.807L115.6 147.1ZM112.9 140.7H113.9C113.9 138.435 114.691 136.604 116.279 135.134L115.6 134.4L114.921 133.666C112.909 135.529 111.9 137.898 111.9 140.7H112.9ZM115.6 134.4L116.294 135.12C117.884 133.589 119.925 132.8 122.5 132.8V131.8V130.8C119.475 130.8 116.916 131.745 114.906 133.68L115.6 134.4ZM122.5 131.8V132.8C125.15 132.8 127.179 133.593 128.693 135.107L129.4 134.4L130.107 133.693C128.155 131.74 125.583 130.8 122.5 130.8V131.8ZM129.4 134.4L128.721 135.134C130.309 136.604 131.1 138.435 131.1 140.7H132.1H133.1C133.1 137.898 132.091 135.529 130.079 133.666L129.4 134.4ZM132.1 140.7H131.1C131.1 142.892 130.312 144.774 128.693 146.393L129.4 147.1L130.107 147.807C132.088 145.826 133.1 143.441 133.1 140.7H132.1ZM129.4 147.1L128.68 146.406C127.163 147.981 125.139 148.8 122.5 148.8V149.8V150.8C125.595 150.8 128.17 149.819 130.12 147.794L129.4 147.1Z" fill="#E8928E" mask="url(#path-2-outside-1_1230_1070)"/>
</svg>
