<svg width="269" height="207" viewBox="0 0 269 207" fill="none" xmlns="http://www.w3.org/2000/svg">
<g filter="url(#filter0_i_1009_1495)">
<path d="M0.732422 113.984C37.5209 174.139 67.0149 167.562 110.154 158.718C45.0927 123.23 42.1353 108.069 42.1353 108.069C25.8699 103.634 0.732422 113.984 0.732422 113.984Z" fill="#1A0003" stroke="#1A0003"/>
<path d="M268.234 113.984C231.446 174.139 201.952 167.562 158.812 158.718C223.874 123.23 226.832 108.069 226.832 108.069C243.097 103.634 268.234 113.984 268.234 113.984Z" fill="#1A0003" stroke="#1A0003"/>
<path d="M39.1777 47.8169C21.4336 101.049 113.609 153.67 113.609 153.67L96.846 106.964C79.1019 77.3904 39.1777 47.8169 39.1777 47.8169Z" fill="#1A0003" stroke="#1A0003"/>
<path d="M229.789 47.8169C247.533 101.049 155.358 153.67 155.358 153.67L172.121 106.964C189.865 77.3904 229.789 47.8169 229.789 47.8169Z" fill="#1A0003" stroke="#1A0003"/>
<rect x="113.82" y="166.321" width="28.5735" height="28.5735" rx="1.5" transform="rotate(-45 113.82 166.321)" fill="#1A0003" stroke="#1A0003"/>
<rect x="125.647" y="198.135" width="10.8294" height="10.8294" rx="0.5" transform="rotate(-45 125.647 198.135)" fill="#1A0003" stroke="#1A0003"/>
<path d="M133.816 142.453C184.09 142.453 145.644 0.5 133.816 0.5C121.987 0.5 83.5411 142.453 133.816 142.453Z" fill="#1A0003" stroke="#1A0003"/>
<path d="M104.241 37.4666C98.326 49.296 96.8473 95.1349 96.8473 95.1349C96.8473 95.1349 83.5391 74.4334 61.3594 52.2533C61.3589 27.1158 65.7958 12.3291 65.7958 12.3291C65.7958 12.3291 74.6674 27.1158 104.241 37.4666Z" fill="#1A0003" stroke="#1A0003"/>
<path d="M164.726 37.4666C170.641 49.296 172.12 95.1349 172.12 95.1349C172.12 95.1349 185.428 74.4334 207.607 52.2533C207.608 27.1158 203.171 12.3291 203.171 12.3291C203.171 12.3291 194.299 27.1158 164.726 37.4666Z" fill="#1A0003" stroke="#1A0003"/>
</g>
<defs>
<filter id="filter0_i_1009_1495" x="0" y="0" width="268.967" height="213.5" filterUnits="userSpaceOnUse" color-interpolation-filters="sRGB">
<feFlood flood-opacity="0" result="BackgroundImageFix"/>
<feBlend mode="normal" in="SourceGraphic" in2="BackgroundImageFix" result="shape"/>
<feColorMatrix in="SourceAlpha" type="matrix" values="0 0 0 0 0 0 0 0 0 0 0 0 0 0 0 0 0 0 127 0" result="hardAlpha"/>
<feOffset dy="10"/>
<feGaussianBlur stdDeviation="3.5"/>
<feComposite in2="hardAlpha" operator="arithmetic" k2="-1" k3="1"/>
<feColorMatrix type="matrix" values="0 0 0 0 1 0 0 0 0 1 0 0 0 0 1 0 0 0 0.25 0"/>
<feBlend mode="normal" in2="shape" result="effect1_innerShadow_1009_1495"/>
</filter>
</defs>
</svg>
